<svg width="64" height="64" viewBox="0 0 64 64" fill="none" xmlns="http://www.w3.org/2000/svg">
<g clip-path="url(#clip0_13_90)">
<path d="M63.9692 17.161C63.6848 23.3734 59.333 31.8847 50.9217 42.6872C42.2182 53.9664 34.8525 59.6021 28.8323 59.6021C25.1033 59.6021 21.9433 56.1576 19.3753 49.2763L14.2239 30.3469C12.3018 23.458 10.2489 20.0211 8.05766 20.0211C7.58097 20.0211 5.90485 21.0207 3.037 23.0351L0.0230637 19.16L9.31859 10.8409C13.5243 7.20423 16.6766 5.30514 18.7756 5.10524C23.7732 4.63623 26.8256 8.02691 27.9712 15.3772L30.5545 30.0086C31.9846 36.5132 33.5685 39.7732 35.283 39.7732C36.6209 39.7732 38.6276 37.6665 41.3109 33.4685C43.9942 29.2705 45.4243 26.0567 45.6165 23.8578C46.001 20.221 44.5632 18.3988 41.3109 18.3988C39.7732 18.3988 38.2047 18.7371 36.5824 19.3984C39.6579 9.17251 45.7626 4.19798 54.6506 4.48246C61.2475 4.67467 64.3537 8.92648 63.9692 17.2456V17.161Z" fill="black"/>
</g>
<defs>
<clipPath id="clip0_13_90">
<rect width="64" height="64" fill="white"/>
</clipPath>
</defs>
</svg>
