<svg width="141" height="144" viewBox="0 0 141 144" fill="none" xmlns="http://www.w3.org/2000/svg">
<path fill-rule="evenodd" clip-rule="evenodd" d="M48.4092 43.676C36.3973 43.676 26.5693 33.848 26.5693 21.8361C26.5693 9.82699 36.3973 0 48.4092 0H91.9128C103.922 0 113.75 9.82699 113.75 21.8361C113.75 33.848 103.922 43.676 91.9128 43.676H48.4092Z" fill="black"/>
<path fill-rule="evenodd" clip-rule="evenodd" d="M47.8319 93.6704H70.0661V49.9822H47.8319C41.8375 49.9822 36.3744 52.4374 32.4149 56.3971C28.4562 60.3568 26 65.8238 26 71.8375C26 83.8424 35.8239 93.6704 47.8319 93.6704Z" fill="black"/>
<path fill-rule="evenodd" clip-rule="evenodd" d="M94.0296 50.4294C81.9709 50.4294 72.1896 60.2057 72.1896 72.2694C72.1896 84.3292 81.9709 94.1054 94.0296 94.1054C106.089 94.1054 115.87 84.3292 115.87 72.2694C115.87 60.2055 106.089 50.4294 94.0296 50.4294Z" fill="black"/>
<path fill-rule="evenodd" clip-rule="evenodd" d="M70.0297 99.8986H47.4064V99.9423C35.7326 100.379 26.3963 109.955 26.3963 121.739C26.3963 133.798 36.1736 143.576 48.2324 143.576C59.9184 143.576 69.4354 134.389 70.0174 122.849H70.0296V122.601C70.0408 122.314 70.0723 122.03 70.0723 121.739C70.0723 121.448 70.0408 121.165 70.0296 120.873L70.0297 99.8986Z" fill="black"/>
</svg>
