<svg width="24" height="24" viewBox="0 0 24 24" fill="none" xmlns="http://www.w3.org/2000/svg">
<path d="M18.1155 6.00894C17.0382 5.30651 16.2606 4.18262 16.0181 2.87246C15.9657 2.5894 15.9369 2.29807 15.9369 2H12.4985L12.493 15.78C12.4352 17.3231 11.1651 18.5616 9.60815 18.5616C9.12424 18.5616 8.66859 18.4406 8.2674 18.2295C7.34741 17.7454 6.71782 16.781 6.71782 15.6713C6.71782 14.0775 8.01448 12.7808 9.60815 12.7808C9.90564 12.7808 10.191 12.8299 10.461 12.9145V9.40424C10.1816 9.3662 9.89776 9.34242 9.60815 9.34242C6.11841 9.34242 3.27941 12.1816 3.27941 15.6713C3.27941 17.8124 4.34916 19.7072 5.98119 20.853C7.00917 21.5747 8.25959 22 9.60815 22C13.0979 22 15.9369 19.161 15.9369 15.6713V8.68367C17.2855 9.65161 18.9377 10.222 20.7206 10.222V6.7836C19.7602 6.7836 18.8657 6.49808 18.1155 6.00894Z" fill="black"/>
</svg>
