<svg width="135" height="135" viewBox="0 0 135 135" fill="none" xmlns="http://www.w3.org/2000/svg">
<path d="M84.0081 87.5773C82.7334 88.2147 81.3311 88.8521 80.0564 89.617C63.8668 99.0504 52.266 114.221 47.4218 132.068C53.6685 133.98 60.4247 135 67.3086 135C76.8693 135 85.9205 133.088 94.0791 129.519C92.6768 115.113 89.2349 100.963 84.0084 87.5773H84.0081Z" fill="black"/>
<path d="M87.324 2.93187C81.0774 1.01969 74.3212 0 67.4373 0C57.239 0 47.6783 2.29462 39.0097 6.24661C49.9729 14.7876 59.7886 24.3486 68.4566 35.1842C77.5074 26.388 84.009 15.2975 87.3235 2.93129L87.324 2.93187Z" fill="black"/>
<path d="M27.154 13.2578C14.4061 22.6912 5.22766 36.4589 1.53062 52.3931C19.3777 57.2373 38.3727 54.8152 54.69 45.3819C55.9648 44.617 57.2396 43.8521 58.3871 43.0873C49.3362 31.8691 38.8827 21.7984 27.154 13.2557V13.2578Z" fill="black"/>
<path d="M99.1774 7.90366C94.9704 22.3089 86.9394 35.3115 75.9762 45.381C78.7808 49.4603 81.4577 53.6673 84.0073 58.0013C86.5568 62.3353 88.7241 66.6698 90.8911 71.1314C105.169 66.6698 120.338 66.2872 135 69.8566V67.562C135 41.684 120.468 19.2483 99.178 7.90192L99.1774 7.90366Z" fill="black"/>
<path d="M133.216 82.6063C120.851 79.2919 107.976 79.4192 95.8644 82.8613C100.836 95.7368 104.278 108.995 106.19 122.763C119.703 113.329 129.519 99.1791 133.216 82.6078L133.216 82.6063Z" fill="black"/>
<path d="M73.8098 78.527C75.4671 77.5072 77.2516 76.6148 79.0366 75.7225C77.1244 71.8981 75.2123 67.9461 72.9176 64.2494C70.7505 60.425 68.456 56.8556 66.0338 53.2862C64.3765 54.4335 62.7193 55.4533 61.0622 56.4733C48.1867 63.8671 34.0367 67.5638 19.7591 67.5638C13.1302 67.5638 6.50128 66.7989 0 65.1417V67.4363C0 93.3144 14.5326 115.75 35.8223 127.096C41.559 106.7 55.0715 89.3627 73.8125 78.5263L73.8098 78.527Z" fill="black"/>
</svg>
