<svg width="156" height="156" viewBox="0 0 156 156" fill="none" xmlns="http://www.w3.org/2000/svg">
<path fill-rule="evenodd" clip-rule="evenodd" d="M39.465 0H116.509C138.304 0 155.973 17.669 155.973 39.465V116.509C155.973 138.304 138.304 155.973 116.509 155.973H39.465C17.669 155.973 0 138.304 0 116.509V39.465C0 17.669 17.669 0 39.465 0ZM73.7545 69.4878C81.753 54.0905 91.7045 34.934 118.543 34.934V34.935C120.589 34.9358 122.551 35.748 123.998 37.1933C125.446 38.6387 126.261 40.5993 126.265 42.645C126.265 43.6585 126.065 44.662 125.677 45.5982C125.289 46.5344 124.72 47.3849 124.003 48.101C123.286 48.8176 122.435 49.3856 121.498 49.7725C120.561 50.1595 119.557 50.3578 118.543 50.356C102.244 50.356 95.914 60.283 87.433 76.616L82.217 86.469L82.2076 86.4872C74.2092 101.883 64.2574 121.039 37.409 121.039C35.3646 121.036 33.4048 120.222 31.959 118.777C31.2429 118.061 30.6747 117.212 30.287 116.277C29.8993 115.341 29.6996 114.339 29.6993 113.327C29.699 112.314 29.8982 111.312 30.2854 110.376C30.6726 109.441 31.2403 108.591 31.956 107.875C32.6719 107.159 33.522 106.59 34.4577 106.203C35.3934 105.815 36.3963 105.616 37.409 105.617C53.719 105.617 60.049 95.689 68.519 79.357L73.746 69.504L73.7545 69.4878Z" fill="black"/>
</svg>
