<svg width="24" height="24" viewBox="0 0 24 24" fill="none" xmlns="http://www.w3.org/2000/svg">
<path fill-rule="evenodd" clip-rule="evenodd" d="M3 11.7301C3 6.71382 6.93003 3.00006 12 3.00006C17.07 3.00006 21 6.71382 21 11.7301C21 16.7463 17.07 20.4601 12 20.4601C11.0893 20.4601 10.2157 20.3398 9.39477 20.1141C9.2352 20.0702 9.06551 20.0826 8.91408 20.1494L7.12771 20.938C6.66043 21.1442 6.13295 20.812 6.11729 20.3013L6.06828 18.7004C6.06225 18.5031 5.97351 18.3188 5.8265 18.1872C4.07532 16.6212 3 14.3539 3 11.7301ZM9.23929 10.0887L6.59554 14.2831C6.34183 14.6856 6.83661 15.1392 7.21564 14.8516L10.0555 12.6964C10.2476 12.5506 10.513 12.5498 10.7059 12.6945L12.8087 14.2716C13.4396 14.7448 14.3402 14.5786 14.7608 13.9114L17.4045 9.71701C17.6582 9.31448 17.1634 8.86088 16.7843 9.14852L13.9445 11.3037C13.7524 11.4495 13.487 11.4503 13.2941 11.3056L11.1914 9.72857C10.5604 9.25535 9.65982 9.42149 9.23929 10.0887Z" fill="black"/>
</svg>
